<svg width="24.000000" height="24.000000" viewBox="0 0 24 24" fill="none" xmlns="http://www.w3.org/2000/svg" xmlns:xlink="http://www.w3.org/1999/xlink">
	<desc>
			Created with Pixso.
	</desc>
	<defs>
		<clipPath id="clip100_795">
			<rect id="right arrow / 24 / Outline" rx="0.000000" width="23.000000" height="23.000000" transform="translate(0.500000 0.500000)" fill="white" fill-opacity="0"/>
		</clipPath>
	</defs>
	<rect id="right arrow / 24 / Outline" rx="0.000000" width="23.000000" height="23.000000" transform="translate(0.500000 0.500000)" fill="#FFFFFF" fill-opacity="0"/>
	<g clip-path="url(#clip100_795)">
		<path id="Vector" d="M16.81 8.53C16.71 8.46 16.59 8.4 16.46 8.37L9.57 6.78C9.44 6.75 9.31 6.74 9.18 6.76C9.05 6.78 8.92 6.83 8.81 6.9C8.59 7.04 8.43 7.27 8.37 7.53C8.34 7.66 8.33 7.79 8.35 7.92C8.38 8.05 8.42 8.17 8.49 8.29C8.63 8.51 8.86 8.67 9.12 8.73L13.66 9.77L7.22 13.8C7 13.94 6.84 14.16 6.78 14.42C6.72 14.68 6.77 14.95 6.91 15.17C7.05 15.4 7.27 15.56 7.53 15.62C7.79 15.68 8.06 15.63 8.28 15.49L14.72 11.47L13.67 16.01C13.64 16.14 13.63 16.27 13.65 16.4C13.67 16.53 13.72 16.66 13.79 16.77C13.86 16.88 13.95 16.98 14.06 17.05C14.17 17.13 14.29 17.18 14.42 17.21C14.55 17.24 14.68 17.25 14.81 17.23C14.94 17.2 15.06 17.16 15.18 17.09C15.29 17.02 15.39 16.93 15.46 16.82C15.54 16.71 15.59 16.59 15.62 16.46L17.21 9.57C17.24 9.44 17.24 9.31 17.22 9.18C17.17 8.92 17.03 8.69 16.81 8.53Z" fill="#FFFFFF" fill-opacity="1.000000" fill-rule="nonzero"/>
	</g>
</svg>
