<svg width="24.000000" height="24.000000" viewBox="0 0 24 24" fill="none" xmlns="http://www.w3.org/2000/svg" xmlns:xlink="http://www.w3.org/1999/xlink">
	<desc>
			Created with Pixso.
	</desc>
	<defs>
		<clipPath id="clip160_363">
			<rect id="stopwatch / 24 / Outline" rx="0.000000" width="23.000000" height="23.000000" transform="translate(0.500000 0.500000)" fill="white" fill-opacity="0"/>
		</clipPath>
	</defs>
	<rect id="stopwatch / 24 / Outline" rx="0.000000" width="23.000000" height="23.000000" transform="translate(0.500000 0.500000)" fill="#FFFFFF" fill-opacity="0"/>
	<g clip-path="url(#clip160_363)">
		<path id="Vector" d="M18.29 8.58L19.2 7.68C19.39 7.5 19.5 7.24 19.5 6.97C19.5 6.71 19.39 6.45 19.2 6.27C19.02 6.08 18.76 5.97 18.5 5.97C18.23 5.97 17.97 6.08 17.79 6.27L16.89 7.18C15.48 6.09 13.76 5.5 11.99 5.5C10.22 5.5 8.5 6.09 7.1 7.18L6.19 6.25C6 6.07 5.74 5.96 5.47 5.96C5.2 5.96 4.95 6.07 4.76 6.26C4.57 6.45 4.47 6.71 4.47 6.97C4.47 7.24 4.58 7.5 4.76 7.68L5.69 8.6C4.59 9.99 3.99 11.72 4 13.5C3.99 14.77 4.29 16.03 4.88 17.16C5.46 18.3 6.3 19.28 7.34 20.02C8.38 20.76 9.57 21.25 10.84 21.43C12.1 21.62 13.39 21.5 14.59 21.08C15.8 20.67 16.89 19.97 17.77 19.05C18.65 18.13 19.3 17.01 19.67 15.79C20.03 14.56 20.09 13.27 19.85 12.02C19.62 10.77 19.08 9.59 18.29 8.58ZM12 19.5C10.81 19.5 9.65 19.14 8.66 18.48C7.67 17.82 6.91 16.89 6.45 15.79C6 14.69 5.88 13.49 6.11 12.32C6.34 11.16 6.91 10.09 7.75 9.25C8.59 8.41 9.66 7.84 10.82 7.61C11.99 7.38 13.19 7.5 14.29 7.95C15.39 8.41 16.32 9.17 16.98 10.16C17.64 11.15 18 12.31 18 13.5C18 15.09 17.36 16.61 16.24 17.74C15.11 18.86 13.59 19.5 12 19.5ZM10 4.5L14 4.5C14.26 4.5 14.51 4.39 14.7 4.2C14.89 4.01 15 3.76 15 3.5C15 3.23 14.89 2.98 14.7 2.79C14.51 2.6 14.26 2.5 14 2.5L10 2.5C9.73 2.5 9.48 2.6 9.29 2.79C9.1 2.98 9 3.23 9 3.5C9 3.76 9.1 4.01 9.29 4.2C9.48 4.39 9.73 4.5 10 4.5ZM13 10.5C13 10.23 12.89 9.98 12.7 9.79C12.51 9.6 12.26 9.5 12 9.5C11.73 9.5 11.48 9.6 11.29 9.79C11.1 9.98 11 10.23 11 10.5L11 12.39C10.77 12.59 10.61 12.85 10.54 13.15C10.47 13.44 10.49 13.75 10.59 14.04C10.7 14.32 10.89 14.57 11.14 14.74C11.39 14.91 11.69 15 12 15C12.3 15 12.6 14.91 12.85 14.74C13.1 14.57 13.29 14.32 13.4 14.04C13.5 13.75 13.52 13.44 13.45 13.15C13.38 12.85 13.22 12.59 13 12.39L13 10.5Z" fill="#FFFFFF" fill-opacity="1.000000" fill-rule="nonzero"/>
	</g>
</svg>
